<svg width="421" height="116" viewBox="0 0 421 116" fill="none" xmlns="http://www.w3.org/2000/svg">
<path d="M36.112 98L47.248 27.92H69.808C76.912 27.92 82.32 29.552 86.032 32.816C89.744 36.016 91.152 40.368 90.256 45.872C89.808 48.944 88.656 51.632 86.8 53.936C85.008 56.24 82.8 58.032 80.176 59.312C77.616 60.592 74.928 61.232 72.112 61.232L72.016 61.52C75.152 61.456 77.904 62.032 80.272 63.248C82.704 64.464 84.528 66.288 85.744 68.72C86.96 71.152 87.28 74.16 86.704 77.744C86.064 81.84 84.528 85.424 82.096 88.496C79.664 91.504 76.528 93.84 72.688 95.504C68.848 97.168 64.464 98 59.536 98H36.112ZM51.856 86.384H60.784C63.92 86.384 66.512 85.552 68.56 83.888C70.672 82.224 71.952 79.92 72.4 76.976C72.848 74.032 72.304 71.728 70.768 70.064C69.232 68.336 66.896 67.472 63.76 67.472H54.832L51.856 86.384ZM56.656 56.144H65.104C67.92 56.144 70.224 55.408 72.016 53.936C73.872 52.4 75.024 50.352 75.472 47.792C75.856 45.168 75.344 43.152 73.936 41.744C72.592 40.272 70.512 39.536 67.696 39.536H59.248L56.656 56.144ZM95.2105 98L103.562 45.2H117.003L115.371 55.28H119.019L113.931 61.424C114.827 55.728 116.811 51.44 119.883 48.56C123.019 45.68 127.115 44.24 132.171 44.24C137.995 44.24 142.219 46 144.843 49.52C147.531 53.04 148.363 58 147.339 64.4L146.667 68.72H131.307L131.883 65.36C132.331 62.48 131.883 60.24 130.539 58.64C129.259 57.04 127.307 56.24 124.683 56.24C121.931 56.24 119.691 57.04 117.963 58.64C116.299 60.24 115.243 62.48 114.795 65.36L109.611 98H95.2105ZM151.621 98L153.733 84.944H171.973L176.197 58.16H160.357L162.373 45.2H191.653L185.413 84.944H200.773L198.661 98H151.621ZM185.317 36.848C182.693 36.848 180.709 36.176 179.365 34.832C178.021 33.488 177.509 31.664 177.829 29.36C178.213 27.056 179.301 25.232 181.093 23.888C182.885 22.544 185.093 21.872 187.717 21.872C190.341 21.872 192.325 22.544 193.669 23.888C195.013 25.232 195.493 27.056 195.109 29.36C194.789 31.664 193.733 33.488 191.941 34.832C190.149 36.176 187.941 36.848 185.317 36.848ZM225.6 98.96C220.288 98.96 216.32 97.104 213.696 93.392C211.136 89.68 210.336 84.656 211.296 78.32L213.504 64.88C214.144 60.656 215.424 57.008 217.344 53.936C219.328 50.864 221.76 48.496 224.64 46.832C227.584 45.104 230.816 44.24 234.336 44.24C238.688 44.24 241.888 45.52 243.936 48.08C246.048 50.576 246.752 54.096 246.048 58.64L243.168 55.28H246.528L248.16 42.32L250.464 27.92H264.864L253.728 98H239.808L241.44 87.92H238.08L241.92 84.56C241.216 89.104 239.392 92.656 236.448 95.216C233.568 97.712 229.952 98.96 225.6 98.96ZM232.8 86.48C235.424 86.48 237.568 85.744 239.232 84.272C240.96 82.736 242.048 80.592 242.496 77.84L244.512 65.36C244.96 62.608 244.544 60.496 243.264 59.024C242.048 57.488 240.128 56.72 237.504 56.72C234.816 56.72 232.64 57.488 230.976 59.024C229.312 60.496 228.256 62.608 227.808 65.36L225.792 77.84C225.344 80.592 225.728 82.736 226.944 84.272C228.16 85.744 230.112 86.48 232.8 86.48ZM271.162 115.28L272.986 103.76H287.866C290.554 103.76 292.73 103.088 294.394 101.744C296.058 100.4 297.082 98.544 297.466 96.176L297.754 94.16L299.578 84.08H296.218L300.154 80.72C299.386 85.264 297.562 88.816 294.682 91.376C291.802 93.872 288.186 95.12 283.834 95.12C278.522 95.12 274.554 93.264 271.93 89.552C269.306 85.84 268.506 80.816 269.53 74.48L271.066 64.88C271.706 60.656 272.986 57.008 274.906 53.936C276.89 50.864 279.322 48.496 282.202 46.832C285.146 45.104 288.378 44.24 291.898 44.24C296.25 44.24 299.45 45.52 301.498 48.08C303.61 50.576 304.314 54.096 303.61 58.64L300.73 55.28H304.09L305.242 45.2H319.642L311.482 96.656C310.586 102.416 307.898 106.96 303.418 110.288C298.938 113.616 293.306 115.28 286.522 115.28H271.162ZM290.938 82.64C293.562 82.64 295.738 81.904 297.466 80.432C299.194 78.896 300.282 76.752 300.73 74L302.074 65.36C302.522 62.608 302.106 60.496 300.826 59.024C299.61 57.488 297.69 56.72 295.066 56.72C292.378 56.72 290.202 57.488 288.538 59.024C286.874 60.496 285.818 62.608 285.37 65.36L284.026 74C283.578 76.752 283.93 78.896 285.082 80.432C286.298 81.904 288.25 82.64 290.938 82.64ZM346.293 98.96C341.621 98.96 337.685 98.096 334.484 96.368C331.285 94.576 328.981 92.112 327.573 88.976C326.229 85.776 325.877 82.064 326.517 77.84L328.533 65.36C329.237 61.136 330.773 57.456 333.141 54.32C335.573 51.12 338.645 48.656 342.357 46.928C346.133 45.136 350.357 44.24 355.029 44.24C359.701 44.24 363.605 45.136 366.741 46.928C369.941 48.656 372.213 51.12 373.557 54.32C374.965 57.456 375.317 61.136 374.613 65.36L373.077 74.96H340.725L340.245 77.84C339.733 81.168 340.149 83.696 341.493 85.424C342.837 87.088 345.109 87.92 348.309 87.92C350.549 87.92 352.405 87.536 353.877 86.768C355.413 86 356.501 84.944 357.141 83.6H371.253C370.037 86.672 368.181 89.36 365.685 91.664C363.189 93.968 360.277 95.76 356.949 97.04C353.685 98.32 350.133 98.96 346.293 98.96ZM360.501 67.568L360.885 65.168C361.397 61.904 361.045 59.408 359.829 57.68C358.613 55.952 356.437 55.088 353.301 55.088C350.165 55.088 347.669 55.984 345.812 57.776C343.957 59.568 342.773 62.096 342.261 65.36L341.973 66.8L361.653 66.608L360.501 67.568Z" fill="#FF2A12"/>
<path d="M16.032 43.856C13.6 43.856 11.488 42.992 9.696 41.264C7.968 39.472 7.104 37.36 7.104 34.928C7.104 32.496 7.968 30.416 9.696 28.688C11.488 26.896 13.6 26 16.032 26C18.464 26 20.544 26.896 22.272 28.688C24.064 30.416 24.96 32.496 24.96 34.928C24.96 37.36 24.064 39.472 22.272 41.264C20.544 42.992 18.464 43.856 16.032 43.856ZM11.616 99.44L6.72 51.92L27.264 48.752L21.12 98.576L11.616 99.44Z" fill="black"/>
</svg>
