<svg width="201" height="81" viewBox="0 0 201 81" fill="none" xmlns="http://www.w3.org/2000/svg">
<path d="M49.1012 39.2334C49.1866 39.404 49.336 39.6173 49.5495 39.8732C50.2325 40.7263 50.8728 41.5794 51.4705 42.4325C52.1108 43.2429 52.6444 44.1174 53.0715 45.0559C53.5412 45.9517 53.8615 46.9542 54.0326 48.0635C54.2037 49.1728 54.1615 50.4101 53.9061 51.7756C53.5655 53.781 52.9048 55.4239 51.924 56.7043C50.9858 57.942 49.8341 58.9024 48.4691 59.5856C47.104 60.2688 45.5895 60.7387 43.9256 60.9954C42.2617 61.2093 40.5337 61.3167 38.7417 61.3174C36.9924 61.3607 35.2217 61.3187 33.4297 61.1914C31.6803 61.0641 30.0376 60.9794 28.5016 60.9373C28.2456 60.9374 27.9896 60.9375 27.7336 60.9376C27.5203 60.9377 27.3069 60.8951 27.0935 60.8098C26.8347 53.4286 26.7679 46.1113 26.8931 38.8579C27.0183 31.5618 27.0154 24.2018 26.8846 16.7779L26.9486 16.7139C28.655 16.2439 30.4682 15.8805 32.3881 15.6238C34.308 15.367 36.2067 15.281 38.084 15.3656C39.9614 15.4502 41.7535 15.7269 43.4604 16.1955C45.2099 16.6642 46.7462 17.4316 48.0692 18.4978C49.3923 19.5213 50.4382 20.8649 51.2068 22.5286C51.9754 24.1496 52.3602 26.1548 52.3611 28.5441C52.3618 30.3361 52.0425 32.0856 51.4031 33.7925C50.8065 35.4994 50.0817 37.0783 49.229 38.5293C49.0584 38.8281 49.0158 39.0628 49.1012 39.2334ZM42.002 51.6521C42.5992 51.3959 43.1111 51.0117 43.5376 50.4995C44.0067 49.8593 44.2197 49.0913 44.1767 48.1953C44.1763 47.2993 44.0267 46.4887 43.7277 45.7634C43.4715 45.2515 43.0874 44.8037 42.5752 44.4199C42.0631 43.9934 41.5296 43.7163 40.9749 43.5885C40.1642 43.3755 39.3321 43.2691 38.4788 43.2695C37.6254 43.2271 36.7934 43.1634 35.9827 43.0784C35.8123 43.7185 35.6632 44.4439 35.5356 45.2546C35.4079 46.0653 35.3228 46.8973 35.2805 47.7507C35.2808 48.5613 35.3451 49.3507 35.4734 50.1186C35.6017 50.8866 35.8366 51.5265 36.1782 52.0383L36.3062 52.1023C36.9035 52.1021 37.5222 52.1232 38.1622 52.1656C38.8449 52.1653 39.5062 52.1437 40.1462 52.1008C40.8288 52.0152 41.4474 51.8657 42.002 51.6521ZM42.0591 33.7321C42.6563 33.3905 43.1255 32.8997 43.4665 32.2595C43.765 31.7474 44.0208 31.15 44.2339 30.4673C44.4469 29.7845 44.3827 29.1019 44.0411 28.4193C43.6995 27.7368 43.2513 27.225 42.6965 26.8838C42.1843 26.5 41.5869 26.2229 40.9042 26.0525C40.0508 25.8822 39.1334 25.7972 38.1521 25.7976C37.2134 25.7553 36.4241 25.9049 35.7842 26.2465C35.8699 27.2278 35.8277 28.4225 35.6576 29.8305C35.5302 31.2386 35.6587 32.6892 36.0433 34.1824C36.6833 34.2675 37.366 34.3312 38.0914 34.3736C38.8167 34.416 39.5207 34.3944 40.2033 34.3088C40.886 34.2232 41.5046 34.031 42.0591 33.7321ZM66.7339 30.6506C66.7766 30.7786 66.7981 30.992 66.7982 31.2906C66.9688 31.2052 67.3527 31.0344 67.95 30.7782C68.5899 30.5219 69.2085 30.287 69.8057 30.0735C70.6163 29.8172 71.5335 29.6248 72.5575 29.4964C73.5814 29.3254 74.5414 29.2183 75.4374 29.1753C76.3333 29.1323 77.08 29.132 77.6774 29.1745C78.3174 29.1742 78.6374 29.1954 78.6374 29.2381C78.6379 30.6888 78.6171 31.9688 78.5749 33.0781C78.5753 34.1874 78.5757 35.1901 78.576 36.0861C78.5764 36.9394 78.5767 37.7288 78.5769 38.4541C78.5772 39.1794 78.5988 39.8621 78.6417 40.5021L78.0656 40.3103C77.8523 40.2251 77.6176 40.1611 77.3616 40.1186C77.1482 40.0333 76.9348 39.9481 76.7215 39.8628C76.2094 39.735 75.6761 39.6286 75.1214 39.5434C74.6093 39.4583 74.332 39.4157 74.2893 39.4158C73.1373 39.2882 72.0706 39.2246 71.0892 39.225C70.1506 39.2253 69.3186 39.375 68.5934 39.6739C67.9109 39.9729 67.3777 40.4424 66.9939 41.0825C66.6102 41.7227 66.4399 42.6401 66.483 43.8347C66.5262 45.3281 66.5695 46.736 66.6126 48.0587C66.6558 49.3813 66.6777 50.7253 66.6782 52.0907C66.6787 53.4133 66.6792 54.7787 66.6798 56.1867C66.723 57.552 66.7449 59.024 66.7455 60.6026L66.7456 60.8586C66.0203 61.0723 65.359 61.2005 64.7617 61.2434C64.1644 61.2863 63.5457 61.2865 62.9057 61.2441C62.2657 61.2444 61.5617 61.2233 60.7937 61.1809C60.0683 61.1385 59.1937 61.1602 58.1697 61.2459C58.1677 55.9979 58.1017 50.7499 57.9716 45.502C57.8843 40.254 57.9249 34.814 58.0934 29.1819C58.6054 29.2244 59.0321 29.2669 59.3734 29.3095C59.7147 29.3093 60.0347 29.3092 60.3334 29.3091C60.6321 29.309 60.9521 29.3089 61.2934 29.3087C61.6347 29.2659 62.0614 29.2231 62.5734 29.1802C62.744 29.1802 63.0427 29.1587 63.4693 29.1159C63.9387 29.073 64.408 29.0302 64.8773 28.9874C65.3893 28.9445 65.8159 28.9443 66.1573 28.9869C66.5413 28.9867 66.7333 29.0293 66.7333 29.1146C66.7335 29.456 66.7336 29.712 66.7336 29.8826C66.7337 30.0533 66.7338 30.2026 66.7338 30.3306C66.7338 30.416 66.7339 30.5226 66.7339 30.6506ZM86.8397 28.8509C87.8211 28.8932 88.9944 28.8928 90.3597 28.8496L91.4477 28.8492L91.4478 29.0412C91.4071 34.2039 91.3025 39.4732 91.1339 44.8493C91.008 50.2254 91.0953 55.4947 91.396 60.6572C91.1827 60.9133 90.6495 61.0415 89.7961 61.0418C88.9428 61.0848 88.0041 61.0852 86.9801 61.0429C85.9988 61.0433 85.0601 61.0223 84.1641 60.98C83.2681 60.9377 82.6708 60.9592 82.3721 61.0447C82.5844 58.3566 82.6687 55.6259 82.625 52.8526C82.6239 50.0792 82.5802 47.3272 82.4938 44.5966C82.4074 41.866 82.3637 39.178 82.3627 36.5327C82.3617 33.8447 82.4887 31.2419 82.7437 28.7245L82.7437 28.6605C82.9143 28.6178 83.1916 28.6177 83.5757 28.6602C84.0023 28.7027 84.3224 28.7239 84.5357 28.7238C85.0904 28.7663 85.8584 28.8087 86.8397 28.8509ZM82.5483 19.8926C82.4624 18.5273 82.4405 16.8633 82.4824 14.9006L91.1864 15.0893C91.1865 15.3453 91.1867 15.8146 91.187 16.4973C91.2299 17.1373 91.2515 17.8626 91.2518 18.6733C91.2948 19.4412 91.3164 20.2519 91.3168 21.1052C91.3597 21.9159 91.3813 22.6412 91.3816 23.2812C91.211 23.5373 90.8058 23.7081 90.1658 23.7937C89.5685 23.8792 88.8432 23.9222 87.9898 23.9225C87.1792 23.8802 86.3045 23.8378 85.3658 23.7955C84.4271 23.7105 83.5524 23.6895 82.7418 23.7325C82.7413 22.4952 82.6768 21.2152 82.5483 19.8926ZM113.334 18.7288C113.376 18.2595 113.419 17.5981 113.461 16.7448L113.461 16.0408C113.461 15.9981 113.738 15.9553 114.293 15.9124C114.89 15.8269 115.594 15.7839 116.405 15.7836C117.258 15.7406 118.154 15.7403 119.093 15.7826C120.031 15.7822 120.842 15.8459 121.525 15.9737L121.526 20.1977C121.529 27.323 121.639 34.363 121.855 41.3176C122.071 48.2721 122.094 54.8215 121.926 60.9655C120.603 60.966 119.153 60.9879 117.574 61.0312C115.995 61.1171 114.566 61.075 113.286 60.9048C113.243 60.8195 113.222 60.6702 113.222 60.4569C113.222 60.0302 113.2 59.6889 113.158 59.4329C113.157 59.1769 113.157 58.8142 113.157 58.3449C113.072 58.1316 112.965 57.9823 112.837 57.897C112.752 57.769 112.645 57.8331 112.517 58.0891C111.877 59.3694 111.024 60.2017 109.958 60.5861C108.891 60.9278 107.761 61.0136 106.566 60.8434C104.134 60.6737 102.214 60.0557 100.805 58.9896C99.3969 57.8808 98.3297 56.4946 97.6037 54.8308C96.9204 53.1244 96.4504 51.2259 96.1935 49.1354C95.9794 47.0448 95.8506 44.9328 95.8071 42.7995C95.8065 41.3062 95.8913 39.8555 96.0614 38.4474C96.2742 37.0393 96.5724 35.7592 96.956 34.6071C97.3822 33.4122 97.9151 32.4094 98.5548 31.5985C99.2371 30.7449 100.048 30.1472 100.986 29.8055C102.138 29.3784 103.397 29.1219 104.762 29.0361C106.17 28.9076 107.492 28.907 108.73 29.0346C109.967 29.1194 111.013 29.311 111.866 29.6094C112.719 29.9077 113.189 30.2489 113.274 30.6328C113.231 28.6275 113.209 27.0062 113.209 25.7689C113.208 24.5315 113.208 23.5502 113.207 22.8249C113.207 22.0569 113.207 21.4809 113.207 21.0969C113.249 20.6702 113.27 20.2862 113.27 19.9448C113.313 19.5608 113.334 19.1555 113.334 18.7288ZM105.405 37.4838C104.381 38.2522 103.763 39.3831 103.55 40.8766C103.337 41.474 103.21 42.0927 103.167 42.7327C103.125 43.3727 103.104 43.9914 103.104 44.5887C103.104 45.6554 103.233 46.7007 103.489 47.7246C103.745 48.7058 104.13 49.6017 104.642 50.4121C105.154 51.1799 105.773 51.7984 106.499 52.2674C107.224 52.7365 108.035 52.9708 108.931 52.9705C109.998 52.9701 110.83 52.7351 111.427 52.2655C112.067 51.796 112.536 51.1558 112.834 50.345C113.175 49.5342 113.367 48.5741 113.409 47.4648C113.494 46.3128 113.536 45.0541 113.535 43.6887C113.535 42.0247 113.492 40.7234 113.406 39.7848C113.363 38.8035 113.213 38.0569 112.957 37.545C112.701 37.0331 112.295 36.7132 111.741 36.5854C111.229 36.415 110.525 36.3299 109.629 36.3302C107.879 36.3309 106.471 36.7154 105.405 37.4838ZM133.689 44.641C133.689 45.025 133.689 45.4304 133.689 45.857L133.69 46.433C133.69 48.609 134.331 50.4648 135.612 52.0003C136.38 52.9387 137.404 53.5143 138.684 53.7271C139.964 53.8973 141.159 53.8115 142.268 53.4697C142.652 53.3416 142.951 53.1495 143.164 52.8934C143.377 52.5947 143.548 52.2746 143.676 51.9332C143.803 51.5492 143.889 51.1651 143.931 50.7811C144.016 50.3544 144.08 49.9491 144.123 49.565C144.122 47.8584 144.079 46.1304 143.993 44.3811C143.949 42.5891 143.714 40.8825 143.287 39.2614C143.031 38.6215 142.604 38.1309 142.006 37.7898C141.451 37.4061 140.833 37.1716 140.15 37.0866C139.467 37.0015 138.785 37.0657 138.102 37.2793C137.462 37.4502 136.886 37.7491 136.374 38.176C135.735 38.9016 135.18 39.7125 134.711 40.6086C134.285 41.4621 133.987 42.3796 133.816 43.361C133.731 43.7877 133.689 44.2144 133.689 44.641ZM146.436 73.5642C145.839 73.6924 145.284 73.7779 144.772 73.8208C144.345 73.9063 143.577 73.9279 142.468 73.8857C141.359 73.8434 139.929 73.8226 138.18 73.8233C136.175 73.8241 134.383 73.3981 132.804 72.5454C131.225 71.6926 129.944 70.5411 128.962 69.0908C128.791 68.7922 128.621 68.387 128.45 67.875C128.322 67.4057 128.193 66.9151 128.065 66.4032C127.98 65.8912 127.915 65.4006 127.873 64.9313C127.872 64.4619 127.894 64.0566 127.936 63.7152C128.363 63.5444 128.939 63.4162 129.664 63.3306C130.389 63.2876 131.136 63.266 131.904 63.2657C132.715 63.3081 133.483 63.3504 134.208 63.3928C134.976 63.4779 135.616 63.563 136.128 63.6481C136.129 64.7574 136.47 65.632 137.153 66.2717C137.879 66.9541 138.668 67.3378 139.522 67.4228C140.418 67.5078 141.271 67.2941 142.081 66.7818C142.934 66.2695 143.489 65.4159 143.744 64.2212C143.787 63.7945 143.829 63.3465 143.872 62.8771C143.914 62.4504 143.914 62.0664 143.871 61.7251C143.786 60.9998 143.785 60.2532 143.871 59.4851C143.444 59.9546 142.932 60.2962 142.335 60.5097C141.78 60.7233 141.162 60.8728 140.479 60.9584C139.839 61.044 139.178 61.0869 138.495 61.0872C137.812 61.0874 137.172 61.109 136.575 61.1519C135.765 61.1522 134.932 61.0886 134.079 60.9609C133.268 60.8332 132.479 60.6202 131.711 60.3218C130.985 60.0234 130.324 59.6183 129.726 59.1065C129.129 58.5948 128.638 57.9336 128.254 57.1231C127.656 55.9713 127.229 54.7768 126.972 53.5396C126.716 52.2597 126.545 50.9584 126.459 49.6358C126.458 47.6305 126.5 45.4758 126.584 43.1717C126.669 40.8677 127.031 38.7129 127.67 36.7073C128.352 34.6591 129.418 32.952 130.868 31.5861C132.318 30.1775 134.408 29.3874 137.139 29.2157C138.504 29.1298 139.763 29.3214 140.915 29.7903C142.11 30.2165 142.964 31.0268 143.476 32.2213C143.647 32.3065 143.732 32.2425 143.732 32.0292C143.775 31.7732 143.774 31.4745 143.732 31.1332C143.731 30.7492 143.71 30.3865 143.667 30.0452C143.667 29.6612 143.731 29.3625 143.859 29.1491C145.267 28.9779 146.696 28.9347 148.147 29.0195C149.597 29.0616 151.048 29.0824 152.499 29.0818C152.672 34.4151 152.759 40.0044 152.761 45.8497C152.806 51.6524 152.702 57.6258 152.448 63.7699C152.406 64.7939 152.406 65.7965 152.449 66.7779C152.492 67.8018 152.301 68.6552 151.874 69.3381C151.277 70.277 150.659 71.0239 150.019 71.5788C149.422 72.1337 148.825 72.5606 148.228 72.8595C147.63 73.201 147.033 73.4359 146.436 73.5642ZM167.916 45.1399C166.977 45.0976 166.295 45.0339 165.868 44.9487L165.868 46.1007C165.912 47.3807 165.955 48.426 165.998 49.2367C166.083 50.0473 166.361 50.8365 166.831 51.6043C167.343 52.5855 168.068 53.3105 169.007 53.7795C169.946 54.2485 170.864 54.3975 171.76 54.2265C172.655 54.0555 173.402 53.5432 173.999 52.6896C174.639 51.7934 174.915 50.4706 174.829 48.7213C175.256 48.7638 175.832 48.7849 176.557 48.7846C177.283 48.7417 178.029 48.6987 178.797 48.6558C179.608 48.6128 180.376 48.6125 181.101 48.6549C181.827 48.6546 182.424 48.7184 182.893 48.8462C182.809 49.9556 182.724 51.0436 182.639 52.1103C182.554 53.177 182.448 54.1797 182.32 55.1184C182.192 56.0145 182.022 56.8039 181.809 57.4866C181.638 58.1267 181.404 58.5748 181.105 58.8309C180.38 59.8552 179.442 60.5809 178.29 61.008C177.138 61.4351 175.88 61.6916 174.514 61.7774C173.149 61.8633 171.741 61.8638 170.29 61.779C168.882 61.6942 167.581 61.6521 166.386 61.6525C165.192 61.4823 164.082 61.0987 163.058 60.5018C161.906 59.6916 160.945 58.6466 160.177 57.3669C159.408 56.0445 158.789 54.6154 158.319 53.0796C157.849 51.5011 157.528 49.8372 157.357 48.088C157.186 46.3387 157.142 44.5894 157.227 42.84C157.355 41.2613 157.482 39.7466 157.609 38.2959C157.779 36.8025 158.12 35.3517 158.632 33.9435C159.186 32.7059 160.039 31.6603 161.191 30.8065C162.342 29.9101 163.643 29.2482 165.094 28.821C166.544 28.3511 168.08 28.0945 169.701 28.0512C171.323 28.008 172.901 28.178 174.438 28.5614C176.4 28.902 177.979 29.5841 179.174 30.6076C180.369 31.6312 181.266 32.8682 181.864 34.3186C182.504 35.769 182.889 37.3689 183.018 39.1182C183.146 40.8674 183.147 42.6381 183.02 44.4302C182.721 44.5156 182.145 44.6012 181.292 44.6868C180.481 44.7725 179.5 44.8582 178.348 44.9439C177.239 45.0297 176.044 45.0942 174.764 45.1373C173.484 45.1805 172.247 45.2023 171.052 45.2027C169.9 45.2032 168.855 45.1822 167.916 45.1399ZM175.401 36.7531C174.974 35.9852 174.376 35.4095 173.608 35.0258C173.267 34.8125 172.925 34.6633 172.584 34.5781C172.243 34.4503 171.837 34.3864 171.368 34.3866C170.344 34.387 169.512 34.494 168.872 34.7076C168.232 34.9211 167.72 35.22 167.336 35.6042C166.952 35.9883 166.654 36.4364 166.441 36.9485C166.27 37.4606 166.143 37.9939 166.057 38.5486C165.972 39.018 165.93 39.3594 165.93 39.5727C165.973 39.7433 166.186 39.8713 166.57 39.9564C166.954 39.999 167.551 40.0201 168.362 40.0198C169.215 39.9768 170.453 39.955 172.074 39.9543C173.183 39.9539 174.015 39.9749 174.57 40.0174C175.125 40.0598 175.509 40.081 175.722 40.0809C175.978 40.0382 176.106 39.9741 176.106 39.8888C176.106 39.7608 176.106 39.5261 176.106 39.1848C176.105 38.3315 175.87 37.5209 175.401 36.7531Z" fill="#FF662D"/>
<path d="M15.4708 27.6405L15.5689 59.6038L5.72074 60.6533L3.05597 28.9698L15.4708 27.6405Z" fill="#FF662D"/>
<ellipse cx="7.52338" cy="12.0027" rx="7.52338" ry="8" fill="#B5E413"/>
</svg>
